PathFileType	4	(X/Y/Z)	TVC_4_BWA_6_walk_RCNL2025.trc
DataRate	CameraRate	NumFrames	NumMarkers	Units	OrigDataRate	OrigDataStartFrame	OrigNumFrames
100	100	7	27	mm	100	1	420
Frame#	Time	R_Shoulder			L_Shoulder			C7			J_Notch			R_Elbow			L_Elbow			R_Wrist			L_Wrist			R_Asis			L_Asis			R_Psis			L_Psis			Sacral			Thoracic			Sternum			R_Thigh_Lateral			R_Knee_Lateral			R_Shank_Lateral			R_Ankle_Lateral			R_Heel			R_Toe			L_Thigh_Lateral			L_Knee_Lateral			L_Shank_Lateral			L_Ankle_Lateral			L_Heel			L_Toe		
		X1	Y1	Z1	X2	Y2	Z2	X3	Y3	Z3	X4	Y4	Z4	X5	Y5	Z5	X6	Y6	Z6	X7	Y7	Z7	X8	Y8	Z8	X9	Y9	Z9	X10	Y10	Z10	X11	Y11	Z11	X12	Y12	Z12	X13	Y13	Z13	X14	Y14	Z14	X15	Y15	Z15	X16	Y16	Z16	X17	Y17	Z17	X18	Y18	Z18	X19	Y19	Z19	X20	Y20	Z20	X21	Y21	Z21	X22	Y22	Z22	X23	Y23	Z23	X24	Y24	Z24	X25	Y25	Z25	X26	Y26	Z26	X27	Y27	Z27
1	0.00000000	-2563.739502	1291.689941	314.809052	-2576.492676	1300.556641	-67.187660	-2627.763428	1364.640503	140.058807	-2487.160156	1242.416382	112.998947	-2578.923340	979.916565	393.365906	-2670.259766	984.769287	-114.828484	-2465.671875	778.792389	370.342514	-2638.594482	770.480988	-118.588753	-2568.416260	849.807251	291.774689	-2611.716553	846.225403	-55.958202	-2723.866699	887.497681	185.201889	-2731.456055	883.523865	93.562431	-2727.661377	885.510773	139.382160	-2713.446777	1119.451294	140.244217	-2457.126465	1051.048584	108.064087	-2590.904053	497.486603	289.330017	-2624.270264	410.358368	234.534714	-2668.738037	238.798538	289.985138	-2742.549316	44.375603	189.441299	-2792.027588	44.398659	145.579498	-2614.522461	30.786215	163.972900	-2498.928711	502.331696	-70.215225	-2483.937500	424.155853	-22.529467	-2473.231201	302.616150	-67.631073	-2416.407959	53.652550	14.918506	-2449.860596	37.886887	68.982330	-2284.023926	70.515465	5.229190
2	0.01000000	-2559.017822	1291.062622	314.525757	-2571.637451	1299.679321	-67.503616	-2623.131348	1363.736694	139.735199	-2482.276611	1241.793091	112.820190	-2573.012207	979.349670	393.466614	-2666.371582	984.237793	-114.819939	-2457.620117	779.466217	369.949524	-2636.147461	769.878021	-119.087185	-2563.657715	849.099121	291.897308	-2604.286377	845.574341	-56.369595	-2718.574951	886.338806	184.419891	-2725.798340	882.300537	92.831238	-2722.186646	884.319672	138.625565	-2708.439697	1118.390747	139.895203	-2451.774414	1050.531128	107.942413	-2587.937744	496.850800	289.487152	-2621.854980	409.990356	234.570282	-2667.589600	238.771378	290.177063	-2742.467529	44.686062	189.595718	-2791.972412	44.982643	145.781906	-2614.578613	30.760412	163.992538	-2495.323975	500.047760	-70.940277	-2478.472168	422.998718	-22.818602	-2465.315430	301.766632	-67.764450	-2404.383545	53.765060	15.120796	-2437.866943	37.535103	68.986031	-2272.052734	72.384415	5.976814
3	0.02000000	-2553.133545	1290.248657	314.136444	-2565.498779	1298.551514	-67.947754	-2617.313965	1362.580322	139.267258	-2476.120117	1240.998169	112.551201	-2565.697510	978.612427	393.546295	-2661.362305	983.519348	-114.868195	-2447.631592	780.316772	369.417664	-2632.857666	769.071594	-119.737183	-2557.502930	848.200012	291.981171	-2594.874512	844.749756	-56.924541	-2711.845703	884.877686	183.449646	-2718.636475	880.760803	91.923141	-2715.241089	882.819244	137.686394	-2702.108887	1117.026855	139.399002	-2444.969727	1049.886963	107.809860	-2584.080811	496.054138	289.668823	-2618.680420	409.532806	234.601593	-2666.092285	238.783600	290.429352	-2742.348145	45.143875	189.809158	-2791.884521	45.788147	146.053650	-2614.638916	30.731461	164.024414	-2490.420898	497.405090	-71.741508	-2471.427490	421.607910	-23.146513	-2455.471436	300.769287	-67.925400	-2390.276367	53.736904	15.324427	-2423.910889	37.010048	68.893753	-2257.998779	74.269196	7.032195
4	0.03000000	-2546.351074	1289.272217	313.638184	-2558.306152	1297.209229	-68.525612	-2610.547852	1361.212158	138.643448	-2468.933105	1240.064331	112.184639	-2557.336670	977.724243	393.574860	-2655.369629	982.619019	-115.001823	-2436.183716	781.305817	368.747986	-2628.740967	768.075012	-120.520939	-2550.146484	847.136719	292.004028	-2583.906250	843.761414	-57.591003	-2703.911133	883.178711	182.343582	-2710.236084	878.974792	90.885201	-2707.073608	881.076752	136.614391	-2694.689697	1115.404297	138.748032	-2436.968994	1049.133057	107.672203	-2579.409912	495.131622	289.854401	-2614.791260	409.005463	234.619354	-2664.264160	238.858032	290.728760	-2742.184570	45.767273	190.079071	-2791.754395	46.826183	146.389847	-2614.693359	30.700891	164.070267	-2484.187988	494.661438	-72.523964	-2463.001709	420.070129	-23.476299	-2444.173828	299.687988	-68.098183	-2375.191162	53.497231	15.495428	-2409.131104	36.302914	68.677109	-2242.940186	75.817169	8.404790
5	0.04000000	-2538.976562	1288.171875	313.031647	-2550.337646	1295.704468	-69.235924	-2603.112549	1359.689941	137.860168	-2461.005859	1239.038574	111.722908	-2548.338379	976.714539	393.520935	-2648.574463	981.554077	-115.245155	-2423.831787	782.386536	367.951218	-2623.846802	766.916351	-121.408958	-2541.851074	845.944946	291.956238	-2571.982422	842.612610	-58.300373	-2695.062012	881.326294	181.168732	-2700.924316	877.036438	89.776680	-2697.993164	879.181366	135.472706	-2686.468506	1113.588501	137.944092	-2428.105225	1048.286133	107.530281	-2574.020752	494.125549	290.015991	-2610.246338	408.427948	234.610046	-2662.118408	239.013855	291.050140	-2741.968994	46.571957	190.396255	-2791.570557	48.108208	146.780136	-2614.729492	30.670095	164.129196	-2476.649414	492.102356	-73.191696	-2453.469482	418.485321	-23.768238	-2431.989990	298.579010	-68.258522	-2360.289307	53.007416	15.606688	-2394.695801	35.437756	68.336288	-2227.993652	76.653282	10.076987
6	0.05000000	-2531.283936	1286.993286	312.319641	-2541.849854	1294.096191	-70.072693	-2595.260254	1358.079346	136.919769	-2452.602783	1237.973145	111.174240	-2539.070557	975.617188	393.355682	-2641.148926	980.351196	-115.614517	-2411.086182	783.516510	367.045761	-2618.236084	765.630493	-122.368423	-2532.862549	844.662903	291.834778	-2559.738770	841.307800	-58.966721	-2685.572998	879.407959	179.994553	-2691.010986	875.047668	88.658554	-2688.291992	877.227814	134.326553	-2677.711426	1111.655273	136.996246	-2418.701660	1047.372070	107.382324	-2567.988770	493.074219	290.119476	-2605.089355	407.813629	234.553024	-2659.647705	239.265259	291.363647	-2741.689453	47.577847	190.749405	-2791.318115	49.654175	147.211716	-2614.736084	30.640364	164.197021	-2467.899902	489.967834	-73.672165	-2443.112061	416.955780	-23.988369	-2419.447510	297.484009	-68.376663	-2346.537842	52.273788	15.652065	-2381.553711	34.482719	67.904938	-2214.078125	76.454208	12.005121
7	0.06000000	-2523.478760	1285.786011	311.507050	-2533.043457	1292.444580	-71.026596	-2587.182617	1356.449219	135.828918	-2443.930664	1236.920044	110.546944	-2529.817627	974.469543	393.054077	-2633.232178	979.045471	-116.117241	-2398.355225	784.662170	366.053177	-2611.964844	764.255615	-123.370174	-2523.374512	843.325745	291.639404	-2547.686035	839.878784	-59.522503	-2675.670166	877.505005	178.885941	-2680.754395	873.110229	87.588821	-2678.212280	875.307617	133.237381	-2668.631592	1109.683838	135.919220	-2409.022217	1046.436768	107.223183	-2561.353027	492.007660	290.126343	-2599.337158	407.170776	234.421265	-2656.819336	239.624817	291.642517	-2741.325684	48.812725	191.128540	-2790.976807	51.496807	147.671463	-2614.702881	30.612352	164.267334	-2458.111328	488.407166	-73.929405	-2432.183838	415.582825	-24.114008	-2406.963623	296.439484	-68.421532	-2334.583496	51.344383	15.654401	-2370.325439	33.551472	67.441574	-2201.812988	75.011803	14.121807
